HIERARCHY
ROOT Hips
{
  OFFSET 50.4609 96.01 19.0014
  CHANNELS 6 Xposition Yposition Zposition Zrotation Xrotation Yrotation
  JOINT spine
  {
    OFFSET 0 8.13249 0.467659
    CHANNELS 3 Zrotation Xrotation Yrotation
    JOINT spine1
    {
      OFFSET 0 10.3498 0
      CHANNELS 3 Zrotation Xrotation Yrotation
      JOINT spine2
      {
        OFFSET 0 9.91699 0
        CHANNELS 3 Zrotation Xrotation Yrotation
        JOINT Neck
        {
          OFFSET 0 25.461 1.2139
          CHANNELS 3 Zrotation Xrotation Yrotation
          JOINT Head
          {
            OFFSET 0 7.69245 0
            CHANNELS 3 Zrotation Xrotation Yrotation
            End Site
            {
              OFFSET 0 18.62 -6.14063
            }
          }
        }
        JOINT RightShoulder
        {
          OFFSET -4.17575 10.7096 -0.581445
          CHANNELS 3 Zrotation Xrotation Yrotation
          JOINT RightArm
          {
            OFFSET 0 14.0466 0
            CHANNELS 3 Zrotation Xrotation Yrotation
            JOINT RightArmRoll
            {
              OFFSET 0 7.09099 0
              CHANNELS 3 Zrotation Xrotation Yrotation
              JOINT RightForeArm
              {
                OFFSET 0 20.6535 0
                CHANNELS 3 Zrotation Xrotation Yrotation
                JOINT RightForeArmRoll
                {
                  OFFSET 0 7.95718 0
                  CHANNELS 3 Zrotation Xrotation Yrotation
                  JOINT RightHand
                  {
                    OFFSET 0 15.9683 0
                    CHANNELS 3 Zrotation Xrotation Yrotation
                    End Site
                    {
                      OFFSET 0 0 0
                    }
                  }
                }
              }
            }
          }
        }
        JOINT LeftShoulder
        {
          OFFSET 4.17575 10.7096 -0.581445
          CHANNELS 3 Zrotation Xrotation Yrotation
          JOINT LeftArm
          {
            OFFSET 0 14.0466 0
            CHANNELS 3 Zrotation Xrotation Yrotation
            JOINT LeftArmRoll
            {
              OFFSET 0 7.09098 0
              CHANNELS 3 Zrotation Xrotation Yrotation
              JOINT LeftForeArm
              {
                OFFSET 0 20.6535 0
                CHANNELS 3 Zrotation Xrotation Yrotation
                JOINT LeftForeArmRoll
                {
                  OFFSET 0 7.95718 0
                  CHANNELS 3 Zrotation Xrotation Yrotation
                  JOINT LeftHand
                  {
                    OFFSET 0 15.9683 0
                    CHANNELS 3 Zrotation Xrotation Yrotation
                    End Site
                    {
                      OFFSET 0 0 0
                    }
                  }
                }
              }
            }
          }
        }
      }
    }
  }
  JOINT RightUpLeg
  {
    OFFSET -7.20834 -1.32182 -1.10884
    CHANNELS 3 Zrotation Xrotation Yrotation
    JOINT RightUpLegRoll
    {
      OFFSET 0 18.7238 0
      CHANNELS 3 Zrotation Xrotation Yrotation
      JOINT RightLeg
      {
        OFFSET 0 -23.1866 0
        CHANNELS 3 Zrotation Xrotation Yrotation
        JOINT RightLegRoll
        {
          OFFSET 0 23.2624 0
          CHANNELS 3 Zrotation Xrotation Yrotation
          JOINT RightFoot
          {
            OFFSET 0 19.3621 0
            CHANNELS 3 Zrotation Xrotation Yrotation
            JOINT RightToeBase
            {
              OFFSET 0 16.1857 0
              CHANNELS 3 Zrotation Xrotation Yrotation
              End Site
              {
                OFFSET 0.00686052 7.83862 -0.903522
              }
            }
          }
        }
      }
    }
  }
  JOINT LeftUpLeg
  {
    OFFSET 7.20834 -1.32182 -1.10884
    CHANNELS 3 Zrotation Xrotation Yrotation
    JOINT LeftUpLegRoll
    {
      OFFSET 0 18.7239 0
      CHANNELS 3 Zrotation Xrotation Yrotation
      JOINT LeftLeg
      {
        OFFSET 0 23.1865 0
        CHANNELS 3 Zrotation Xrotation Yrotation
        JOINT LeftLegRoll
        {
          OFFSET 0 23.4775 0
          CHANNELS 3 Zrotation Xrotation Yrotation
          JOINT LeftFoot
          {
            OFFSET 0 19.147 0
            CHANNELS 3 Zrotation Xrotation Yrotation
            JOINT LeftToeBase
            {
              OFFSET 0 16.1857 0
              CHANNELS 3 Zrotation Xrotation Yrotation
              End Site
              {
                OFFSET -0.0307459 7.83862 -0.903522
              }
            }
          }
        }
      }
    }
  }
}
MOTION
Frames: 13
Frame Time: 0.00208333
52.2842 95.9052 12.902 -0.0399398 -3.90153 0.973965 0.418832 -0.666487 0.134654 0.828759 2.67043 0.201575 0.827081 4.31539 0.187746 -2.71904 14.5764 -4.80868 -0.218197 1.67753 -5.639 56.4871 -10.8494 -6.77167 116.566 20.7311 14.1829 -2.91674e-007 -3.4775e-006 -1.79532e-006 8.22826 5.45026 -1.17752 -7.38194e-007 -1.65596e-006 -3.00496 8.02914 -4.95145 0.697677 -60.125 -7.39755 4.63581 -112.406 19.3704 -4.71532 -3.61081e-006 -9.63841e-006 7.82647e-006 -9.39354 1.81728 0.917436 5.88699e-006 9.05137e-007 3.00857 -8.029 -4.95147 -0.69769 173.504 2.28205 4.20586 180 7.01576e-015 179.06 177.279 12.5466 179.781 -5.68538e-008 -4.48013e-006 0.0293586 -16.8879 69.1855 20.4711 8.12572 25.2332 -3.48314 -175.115 0.563889 -0.114348 4.54188e-006 -4.6773e-006 -0.894011 -0.658736 -12.3577 0.629526 3.42127e-006 5.04085e-006 -0.0741135 17.2674 71.1226 -22.1672 -8.13242 25.2329 3.486 
52.268 95.939 12.9093 -0.0415536 -3.90106 0.975691 0.418833 -0.661954 0.135637 0.829626 2.67951 0.20472 0.827933 4.32447 0.19088 -2.7266 14.5532 -4.81268 -0.207574 1.6801 -5.64376 56.474 -10.8596 -6.77854 116.572 20.7072 14.1934 -2.91674e-007 -3.4775e-006 -1.79532e-006 8.22881 5.45487 -1.17818 -7.38194e-007 -1.65596e-006 -3.00496 8.02914 -4.95145 0.697677 -60.1033 -7.37526 4.62141 -112.432 19.3427 -4.73015 -3.61081e-006 -9.63841e-006 7.82647e-006 -9.38924 1.815 0.917776 5.88699e-006 9.05137e-007 3.00857 -8.029 -4.95147 -0.69769 173.51 2.27391 4.20027 180 7.01576e-015 179.06 177.284 12.5312 179.781 -5.68538e-008 -4.48013e-006 0.0293469 -16.887 69.1799 20.4656 8.12572 25.2332 -3.48314 -175.113 0.561852 -0.118201 4.54188e-006 -4.6773e-006 -0.894341 -0.661922 -12.3498 0.628435 3.42127e-006 5.04085e-006 -0.0741135 17.2726 71.117 -22.1626 -8.13242 25.2329 3.486 
52.2857 95.9346 12.9102 -0.0431882 -3.90088 0.977444 0.418833 -0.657362 0.136678 0.830528 2.6887 0.207984 0.828821 4.33367 0.194133 -2.73428 14.5295 -4.81688 -0.196677 1.68305 -5.64872 56.4607 -10.8702 -6.78566 116.579 20.6833 14.204 -2.91674e-007 -3.4775e-006 -1.79532e-006 8.22923 5.45994 -1.17887 -7.38194e-007 -1.65596e-006 -3.00496 8.02914 -4.95145 0.697677 -60.0809 -7.3518 4.60627 -112.459 19.3151 -4.74586 -3.61081e-006 -9.63841e-006 7.82647e-006 -9.38427 1.81385 0.918338 5.88699e-006 9.05137e-007 3.00857 -8.029 -4.95147 -0.69769 173.516 2.26487 4.19458 180 7.01576e-015 179.06 177.288 12.5146 179.78 -5.68538e-008 -4.48013e-006 0.0293293 -16.8859 69.1738 20.4597 8.12572 25.2332 -3.48314 -175.11 0.559174 -0.12259 4.54188e-006 -4.6773e-006 -0.894703 -0.665593 -12.3412 0.627215 3.42127e-006 5.04085e-006 -0.0741135 17.2782 71.111 -22.1576 -8.13242 25.2329 3.486 
52.2756 95.9347 12.8926 -0.0448374 -3.9009 0.979217 0.418834 -0.652729 0.137759 0.831455 2.69799 0.211331 0.829733 4.34295 0.197469 -2.74203 14.5055 -4.82121 -0.185587 1.68628 -5.65382 56.4474 -10.8811 -6.79296 116.586 20.6595 14.2146 -2.91674e-007 -3.4775e-006 -1.79532e-006 8.22957 5.46532 -1.17957 -7.38194e-007 -1.65596e-006 -3.00496 8.02914 -4.95145 0.697677 -60.0579 -7.32751 4.59061 -112.486 19.2875 -4.76219 -3.61081e-006 -9.63841e-006 7.82647e-006 -9.37882 1.81351 0.919056 5.88699e-006 9.05137e-007 3.00857 -8.029 -4.95147 -0.69769 173.522 2.25518 4.18882 180 7.01576e-015 179.06 177.293 12.4972 179.78 -5.68538e-008 -4.48013e-006 0.0293076 -16.8847 69.1673 20.4533 8.12572 25.2332 -3.48314 -175.107 0.556045 -0.127356 4.54188e-006 -4.6773e-006 -0.895088 -0.669605 -12.332 0.625904 3.42127e-006 5.04085e-006 -0.0741135 17.2839 71.1046 -22.1524 -8.13242 25.2329 3.486 
52.2786 95.936 12.8988 -0.046495 -3.90103 0.981001 0.418834 -0.648072 0.138862 0.832395 2.70731 0.214727 0.830658 4.35228 0.200853 -2.74983 14.4813 -4.82563 -0.174385 1.68967 -5.659 56.434 -10.8921 -6.80036 116.594 20.6358 14.2252 -2.91674e-007 -3.4775e-006 -1.79532e-006 8.22987 5.47088 -1.18028 -7.38194e-007 -1.65596e-006 -3.00496 8.02914 -4.95145 0.697677 -60.0347 -7.30275 4.57465 -112.513 19.2599 -4.77887 -3.61081e-006 -9.63841e-006 7.82647e-006 -9.37309 1.81362 0.919864 5.88699e-006 9.05137e-007 3.00857 -8.029 -4.95147 -0.69769 173.529 2.24514 4.18303 180 7.01576e-015 179.06 177.298 12.4793 179.779 -5.68538e-008 -4.48013e-006 0.0292834 -16.8834 69.1606 20.4468 8.12572 25.2332 -3.48314 -175.104 0.552656 -0.13234 4.54188e-006 -4.6773e-006 -0.895486 -0.673813 -12.3224 0.62454 3.42127e-006 5.04085e-006 -0.0741135 17.2898 71.0981 -22.1469 -8.13242 25.2329 3.486 
52.2705 95.9355 12.9088 -0.0481548 -3.90119 0.982788 0.418834 -0.643408 0.139972 0.833339 2.71666 0.218135 0.831586 4.36162 0.204251 -2.75764 14.457 -4.83007 -0.163153 1.6931 -5.66421 56.4207 -10.9032 -6.80779 116.601 20.612 14.2358 -2.91674e-007 -3.4775e-006 -1.79532e-006 8.23014 5.47649 -1.181 -7.38194e-007 -1.65596e-006 -3.00496 8.02914 -4.95145 0.697677 -60.0113 -7.27786 4.55861 -112.54 19.2324 -4.79565 -3.61081e-006 -9.63841e-006 7.82647e-006 -9.36729 1.81386 0.920697 5.88699e-006 9.05137e-007 3.00857 -8.029 -4.95147 -0.69769 173.535 2.23499 4.17722 180 7.01576e-015 179.06 177.302 12.4613 179.778 -5.68538e-008 -4.48013e-006 0.0292586 -16.8821 69.1538 20.4402 8.12572 25.2332 -3.48314 -175.1 0.549195 -0.137383 4.54188e-006 -4.6773e-006 -0.895888 -0.678074 -12.3128 0.623161 3.42127e-006 5.04085e-006 -0.0741135 17.2958 71.0915 -22.1415 -8.13242 25.2329 3.486 
52.2774 95.934 12.9063 -0.0498109 -3.9013 0.98457 0.418834 -0.638755 0.141072 0.834275 2.72598 0.221522 0.832507 4.37094 0.207626 -2.76544 14.4329 -4.83447 -0.151971 1.69645 -5.66937 56.4073 -10.9142 -6.81518 116.608 20.5883 14.2464 -2.91674e-007 -3.4775e-006 -1.79532e-006 8.23044 5.48202 -1.18171 -7.38194e-007 -1.65596e-006 -3.00496 8.02914 -4.95145 0.697677 -59.9881 -7.25318 4.54271 -112.568 19.2048 -4.81226 -3.61081e-006 -9.63841e-006 7.82647e-006 -9.36162 1.81389 0.921489 5.88699e-006 9.05137e-007 3.00857 -8.029 -4.95147 -0.69769 173.541 2.22501 4.17144 180 7.01576e-015 179.06 177.307 12.4434 179.778 -5.68538e-008 -4.48013e-006 0.0292348 -16.8808 69.1471 20.4337 8.12572 25.2332 -3.48314 -175.097 0.545854 -0.142327 4.54188e-006 -4.6773e-006 -0.896284 -0.682245 -12.3033 0.621807 3.42127e-006 5.04085e-006 -0.0741135 17.3017 71.085 -22.1361 -8.13242 25.2329 3.486 
52.2851 95.9333 12.9005 -0.0514569 -3.90128 0.986339 0.418833 -0.634131 0.142144 0.835192 2.73524 0.224852 0.833409 4.3802 0.210945 -2.77319 14.4089 -4.83878 -0.14092 1.69962 -5.67444 56.394 -10.925 -6.82244 116.615 20.5644 14.2569 -2.91674e-007 -3.4775e-006 -1.79532e-006 8.2308 5.48733 -1.1824 -7.38194e-007 -1.65596e-006 -3.00496 8.02914 -4.95145 0.697677 -59.9652 -7.22906 4.52717 -112.595 19.1772 -4.82844 -3.61081e-006 -9.63841e-006 7.82647e-006 -9.35627 1.81337 0.922174 5.88699e-006 9.05137e-007 3.00857 -8.029 -4.95147 -0.69769 173.547 2.21546 4.1657 180 7.01576e-015 179.06 177.312 12.4262 179.777 -5.68538e-008 -4.48013e-006 0.0292139 -16.8797 69.1407 20.4275 8.12572 25.2332 -3.48314 -175.094 0.542822 -0.147012 4.54188e-006 -4.6773e-006 -0.896664 -0.686182 -12.2942 0.620516 3.42127e-006 5.04085e-006 -0.0741135 17.3074 71.0787 -22.1309 -8.13242 25.2329 3.486 
52.2712 95.9295 12.9021 -0.0530868 -3.90103 0.988086 0.418833 -0.629552 0.143172 0.836079 2.74441 0.228089 0.834282 4.38937 0.214172 -2.78086 14.3854 -4.84294 -0.130081 1.70249 -5.67936 56.3808 -10.9355 -6.82951 116.622 20.5406 14.2675 -2.91674e-007 -3.4775e-006 -1.79532e-006 8.23126 5.49229 -1.18308 -7.38194e-007 -1.65596e-006 -3.00496 8.02914 -4.95145 0.697677 -59.9428 -7.20586 4.51221 -112.621 19.1496 -4.84392 -3.61081e-006 -9.63841e-006 7.82647e-006 -9.35144 1.81197 0.922685 5.88699e-006 9.05137e-007 3.00857 -8.029 -4.95147 -0.69769 173.553 2.20662 4.16003 180 7.01576e-015 179.06 177.316 12.4099 179.777 -5.68538e-008 -4.48013e-006 0.0291977 -16.8787 69.1347 20.4217 8.12572 25.2332 -3.48314 -175.091 0.540288 -0.15128 4.54188e-006 -4.6773e-006 -0.897018 -0.689741 -12.2858 0.619325 3.42127e-006 5.04085e-006 -0.0741135 17.3128 71.0727 -22.126 -8.13242 25.2329 3.486 
52.2764 95.9276 12.907 -0.0546946 -3.90048 0.989803 0.418832 -0.625037 0.144139 0.836926 2.75345 0.231198 0.835116 4.39842 0.217271 -2.78842 14.3622 -4.84688 -0.119536 1.70493 -5.68406 56.3676 -10.9456 -6.83632 116.629 20.5166 14.278 -2.91674e-007 -3.4775e-006 -1.79532e-006 8.23184 5.49678 -1.18374 -7.38194e-007 -1.65596e-006 -3.00496 8.02914 -4.95145 0.697677 -59.9213 -7.1839 4.49805 -112.647 19.1218 -4.85844 -3.61081e-006 -9.63841e-006 7.82647e-006 -9.34735 1.80935 0.922959 5.88699e-006 9.05137e-007 3.00857 -8.029 -4.95147 -0.69769 173.559 2.19874 4.15447 180 7.01576e-015 179.06 177.321 12.3949 179.776 -5.68538e-008 -4.48013e-006 0.0291877 -16.8779 69.1293 20.4164 8.12572 25.2332 -3.48314 -175.089 0.538443 -0.154972 4.54188e-006 -4.6773e-006 -0.897338 -0.69278 -12.2782 0.618275 3.42127e-006 5.04085e-006 -0.0741135 17.318 71.0674 -22.1216 -8.13242 25.2329 3.486 
52.2763 95.927 12.9064 -0.056274 -3.89953 0.991481 0.418831 -0.620602 0.145028 0.837723 2.76233 0.234145 0.835899 4.4073 0.220208 -2.79584 14.3398 -4.85055 -0.109366 1.70684 -5.68849 56.3547 -10.9552 -6.84278 116.635 20.4925 14.2884 -2.91674e-007 -3.4775e-006 -1.79532e-006 8.2326 5.50065 -1.18436 -7.38194e-007 -1.65596e-006 -3.00496 8.02914 -4.95145 0.697677 -59.9008 -7.16355 4.4849 -112.671 19.0939 -4.87175 -3.61081e-006 -9.63841e-006 7.82647e-006 -9.34418 1.80517 0.922927 5.88699e-006 9.05137e-007 3.00857 -8.029 -4.95147 -0.69769 173.565 2.19211 4.14904 180 7.01576e-015 179.06 177.325 12.3815 179.776 -5.68538e-008 -4.48013e-006 0.0291859 -16.8775 69.1246 20.4118 8.12572 25.2332 -3.48314 -175.086 0.537477 -0.15793 4.54188e-006 -4.6773e-006 -0.897613 -0.695153 -12.2716 0.617403 3.42127e-006 5.04085e-006 -0.0741135 17.3226 71.0626 -22.1178 -8.13242 25.2329 3.486 
52.2742 95.9268 12.9058 -0.057819 -3.89812 0.993113 0.41883 -0.616265 0.145822 0.838457 2.77102 0.236894 0.836621 4.41598 0.222947 -2.80309 14.318 -4.85389 -0.099652 1.70811 -5.69259 56.3419 -10.9641 -6.84883 116.641 20.4683 14.2987 -2.91674e-007 -3.4775e-006 -1.79532e-006 8.23356 5.50377 -1.18494 -7.38194e-007 -1.65596e-006 -3.00496 8.02914 -4.95145 0.697677 -59.8816 -7.14515 4.473 -112.694 19.066 -4.88358 -3.61081e-006 -9.63841e-006 7.82647e-006 -9.34214 1.7991 0.922526 5.88699e-006 9.05137e-007 3.00857 -8.029 -4.95147 -0.69769 173.57 2.18698 4.14378 180 7.01576e-015 179.06 177.329 12.3701 179.775 -5.68538e-008 -4.48013e-006 0.029194 -16.8774 69.1209 20.408 8.12572 25.2332 -3.48314 -175.085 0.53758 -0.159993 4.54188e-006 -4.6773e-006 -0.897833 -0.696719 -12.2665 0.616747 3.42127e-006 5.04085e-006 -0.0741135 17.3267 71.0587 -22.1146 -8.13242 25.2329 3.486 
52.273 95.9253 12.9063 -0.0593235 -3.89614 0.994691 0.418829 -0.612044 0.146505 0.839119 2.77947 0.239409 0.837272 4.42444 0.225454 -2.81013 14.2971 -4.85684 -0.0904756 1.7086 -5.6963 56.3294 -10.9724 -6.85439 116.647 20.4439 14.3089 -2.91674e-007 -3.4775e-006 -1.79532e-006 8.23476 5.50602 -1.18548 -7.38194e-007 -1.65596e-006 -3.00496 8.02914 -4.95145 0.697677 -59.8638 -7.12904 4.46254 -112.716 19.0378 -4.89366 -3.61081e-006 -9.63841e-006 7.82647e-006 -9.34143 1.79081 0.921688 5.88699e-006 9.05137e-007 3.00857 -8.029 -4.95147 -0.69769 173.576 2.18362 4.1387 180 7.01576e-015 179.06 177.333 12.3611 179.775 -5.68538e-008 -4.48013e-006 0.0292136 -16.8777 69.1181 20.4053 8.12572 25.2332 -3.48314 -175.083 0.538941 -0.161005 4.54188e-006 -4.6773e-006 -0.89799 -0.697333 -12.2628 0.616346 3.42127e-006 5.04085e-006 -0.0741135 17.3302 71.0557 -22.1122 -8.13242 25.2329 3.486 
